<svg width="44" xmlns="http://www.w3.org/2000/svg" height="44" fill="none"><g data-testid="Group"><g data-testid="Rectangle"><rect rx="10" ry="10" width="44" height="44" style="fill: rgb(234, 240, 247); fill-opacity: 1;" class="fills"/><g class="strokes"><g class="inner-stroke-shape"><defs><clipPath id="b"><use href="#a"/></clipPath><rect rx="10" ry="10" x="0" y="0" width="44" height="44" id="a" style="fill: none; stroke-width: 2; stroke: rgb(54, 112, 15); stroke-opacity: 1;"/></defs><use href="#a" clip-path="url('#b')"/></g></g></g><g data-testid="leaf-svgrepo-com" xml:space="preserve" style="fill: rgb(0, 0, 0);"><path d="M27.915 5s3.004 7.348-9.869 12.284c-6.995 2.681-12.368 9.553-5.953 20.169.531-4.745 2.809-15.207 12.605-17.595 0 0-9.117 3.409-9.922 18.841 4.684.657 15.671 1.099 18.933-8.435C38.016 17.667 27.915 5 27.915 5Z" style="fill: rgb(58, 127, 13);" class="fills" data-testid="svg-path"/><path d="M14.78 38.634c9.945-3.969 17.181-13.266 18.18-24.366C30.927 8.784 27.915 5 27.915 5s3.004 7.348-9.869 12.284c-6.995 2.681-12.368 9.553-5.953 20.169.531-4.745 2.809-15.207 12.605-17.595-.001 0-9.091 3.401-9.918 18.776Z" style="fill: rgb(73, 160, 16);" class="fills" data-testid="svg-path"/><circle cx="11.101" cy="16.599" style="fill: rgb(58, 127, 13);" r=".93" class="fills" data-testid="svg-circle"/><circle cx="14.023" cy="15.67" style="fill: rgb(73, 160, 16);" r=".664" class="fills" data-testid="svg-circle"/><circle cx="13.425" cy="9.361" style="fill: rgb(73, 160, 16);" r="1.66" class="fills" data-testid="svg-circle"/><circle cx="18.538" cy="13.146" style="fill: rgb(73, 160, 16);" r=".531" class="fills" data-testid="svg-circle"/><circle cx="22.988" cy="10.158" style="fill: rgb(73, 160, 16);" r="1.527" class="fills" data-testid="svg-circle"/></g></g></svg>